<?xml version="1.0" encoding="UTF-8"?>
<svg id="Layer_1" data-name="Layer 1" xmlns="http://www.w3.org/2000/svg" viewBox="0 0 2848.94 575.9">
  <defs>
    <style>
      .cls-1 {
        font-family: Couture-Bold, Couture;
        font-size: 600.52px;
        font-weight: 700;
      }

      .cls-2 {
        fill-rule: evenodd;
      }
    </style>
  </defs>
  <text class="cls-1" transform="translate(0 514.64)"><tspan x="0" y="0">GKDroid</tspan></text>
  <g id="Icons">
    <g id="Color-">
      <path id="Android" class="cls-2" d="m2023.96,213.6c-4.4,0-7.96-3.58-7.96-7.99s3.56-7.98,7.96-7.98,7.96,3.56,7.96,7.98-3.56,7.99-7.96,7.99h0Zm-63.63,0c-4.4,0-7.96-3.58-7.96-7.99s3.56-7.98,7.96-7.98,7.96,3.56,7.96,7.98-3.56,7.99-7.96,7.99h0Zm68.33-32.01l2.96-4.5,2.96-4.43,6.6-9.97c.82-1.23.48-2.88-.74-3.69-1.21-.83-2.87-.49-3.66.74l-10.08,15.16-3.03,4.56c-9.58-3.74-20.27-5.83-31.54-5.83s-21.96,2.09-31.54,5.83l-3.01-4.56-2.98-4.48-7.09-10.68c-.82-1.23-2.46-1.55-3.69-.74-1.21.81-1.55,2.46-.74,3.69l6.6,9.97,2.96,4.43,2.98,4.5c-22.5,10.54-37.73,30.49-37.73,53.33h148.46c0-22.84-15.22-42.79-37.71-53.33Zm-109.61,63.98h-1.14v117.2c0,9.31,7.52,16.88,16.8,16.88h12.11c-.42,1.41-.64,2.88-.64,4.43v33.74c0,8.82,7.14,15.97,15.92,15.97s15.92-7.15,15.92-15.97v-33.74c0-1.55-.24-3.03-.64-4.43h29.54c-.4,1.41-.63,2.88-.63,4.43v33.74c0,8.82,7.12,15.97,15.9,15.97s15.93-7.15,15.93-15.97v-33.74c0-1.55-.24-3.03-.66-4.43h12.13c9.28,0,16.79-7.57,16.79-16.88v-117.2h-147.32Zm-27.66,0c-8.8,0-15.92,7.15-15.92,15.97v68.38c0,8.82,7.12,15.97,15.92,15.97s15.9-7.15,15.9-15.97v-68.38c0-8.82-7.12-15.97-15.9-15.97Zm201.51,0c-8.8,0-15.92,7.15-15.92,15.97v68.38c0,8.82,7.12,15.97,15.92,15.97s15.9-7.15,15.9-15.97v-68.38c0-8.82-7.12-15.97-15.9-15.97Z"/>
    </g>
  </g>
</svg>