<?xml version="1.0" encoding="UTF-8"?>
<svg id="Layer_1" data-name="Layer 1" xmlns="http://www.w3.org/2000/svg" viewBox="0 0 2814.8 445.59">
  <defs>
    <style>
      .cls-1 {
        fill-rule: evenodd;
      }
    </style>
  </defs>
  <g>
    <path d="m414.95,330.29c-36.52,69.06-110.77,115.3-194,115.3C99.4,445.59,0,345.9,0,223.4S99.4,1.8,220.95,1.8c82.63,0,155.08,46.24,193.4,112.9-37.72,19.22-40.72,21.02-82.63,42.04-22.15-38.43-62.87-63.06-110.77-63.06-71.85,0-129.33,57.65-129.33,129.71s57.48,129.71,129.33,129.71c47.9,0,95.8-24.02,113.17-64.86h-9.58c-19.16,0-62.87.6-86.82.6-11.38,0-16.77,0-16.77-.6v-79.27c60.48,0,144.9.6,218.55.6,0,12.61-2.4,91.88-24.55,120.71Z"/>
    <path d="m865.82,438.38h-129.33l-111.37-120.1-55.69,77.47v42.64h-95.8V9.01h95.8v243.21L736.48,9.01h116.76l-161.07,243.21,173.64,186.16Z"/>
    <path d="m921.5,9.61h184.42c110.77,0,194,70.26,194,211.99,0,124.31-63.47,216.79-194,216.79h-184.42V9.61Zm94.01,349.51h83.83c54.49,0,106.58-33.63,106.58-128.51,0-86.48-30.54-141.72-123.35-141.72h-67.06v270.24Z"/>
    <path d="m1608.89,279.84l119.75,159.14h-114.96l-107.78-154.33h-46.1v154.33h-94.61V9.61h192.8c107.78,0,149.09,67.86,149.09,137.52,0,58.25-30.54,117.1-101.79,132.72h3.59Zm-149.09-196.97v129.11h73.05c44.91,0,82.03-10.21,82.03-64.86s-37.12-64.26-82.03-64.26h-73.05Z"/>
    <path d="m1987.91,443.79c-122.15,0-220.95-99.09-220.95-221.59S1865.76,0,1987.91,0s221.54,99.09,221.54,222.19-99.99,221.59-221.54,221.59Zm-130.53-221.59c0,71.46,59.28,130.91,130.53,130.91s129.33-59.45,129.33-130.91-58.08-131.52-129.33-131.52-130.53,60.05-130.53,131.52Z"/>
    <path d="m2263.94,9.61h94.01v428.77h-94.01V9.61Z"/>
    <path d="m2436.38,9.61h184.42c110.77,0,194,70.26,194,211.99,0,124.31-63.47,216.79-194,216.79h-184.42V9.61Zm94.01,349.51h83.83c54.49,0,106.58-33.63,106.58-128.51,0-86.48-30.54-141.72-123.35-141.72h-67.06v270.24Z"/>
  </g>
  <g id="Icons">
    <g id="Color-">
      <path id="Android" class="cls-1" d="m2017.37,137.34c-4.4,0-7.96-3.58-7.96-7.99s3.56-7.98,7.96-7.98,7.96,3.56,7.96,7.98-3.56,7.99-7.96,7.99h0Zm-63.63,0c-4.4,0-7.96-3.58-7.96-7.99s3.56-7.98,7.96-7.98,7.96,3.56,7.96,7.98-3.56,7.99-7.96,7.99h0Zm68.33-32.01l2.96-4.5,2.96-4.43,6.6-9.97c.82-1.23.48-2.88-.74-3.69-1.21-.83-2.87-.49-3.66.74l-10.08,15.16-3.03,4.56c-9.58-3.74-20.27-5.83-31.54-5.83s-21.96,2.09-31.54,5.83l-3.01-4.56-2.98-4.48-7.09-10.68c-.82-1.23-2.46-1.55-3.69-.74-1.21.81-1.55,2.46-.74,3.69l6.6,9.97,2.96,4.43,2.98,4.5c-22.5,10.54-37.73,30.49-37.73,53.33h148.46c0-22.84-15.22-42.79-37.71-53.33Zm-109.61,63.98h-1.14v117.2c0,9.31,7.52,16.88,16.8,16.88h12.11c-.42,1.41-.64,2.88-.64,4.43v33.74c0,8.82,7.14,15.97,15.92,15.97s15.92-7.15,15.92-15.97v-33.74c0-1.55-.24-3.03-.64-4.43h29.54c-.4,1.41-.63,2.88-.63,4.43v33.74c0,8.82,7.12,15.97,15.9,15.97s15.93-7.15,15.93-15.97v-33.74c0-1.55-.24-3.03-.66-4.43h12.13c9.28,0,16.79-7.57,16.79-16.88v-117.2h-147.32Zm-27.66,0c-8.8,0-15.92,7.15-15.92,15.97v68.38c0,8.82,7.12,15.97,15.92,15.97s15.9-7.15,15.9-15.97v-68.38c0-8.82-7.12-15.97-15.9-15.97Zm201.51,0c-8.8,0-15.92,7.15-15.92,15.97v68.38c0,8.82,7.12,15.97,15.92,15.97s15.9-7.15,15.9-15.97v-68.38c0-8.82-7.12-15.97-15.9-15.97Z"/>
    </g>
  </g>
</svg>